<?xml version="1.0" standalone="no"?>
<!DOCTYPE svg PUBLIC "-//W3C//DTD SVG 20010904//EN"
 "http://www.w3.org/TR/2001/REC-SVG-20010904/DTD/svg10.dtd">
<svg version="1.0" xmlns="http://www.w3.org/2000/svg"
 width="354.000000pt" height="200.000000pt" viewBox="0 0 354.000000 200.000000"
 preserveAspectRatio="xMidYMid meet">

<g transform="translate(0.000000,200.000000) scale(0.100000,-0.100000)"
fill="#000000" stroke="none">
<path d="M113 1924 c-10 -4 -13 -49 -13 -175 l0 -169 116 0 c105 0 115 2 112
18 -3 14 -17 17 -96 20 l-92 3 0 59 0 60 58 0 c63 0 74 4 65 26 -4 10 -23 14
-64 14 l-59 0 0 55 0 55 91 0 c81 0 90 2 87 18 -3 15 -17 17 -98 19 -52 1
-101 -1 -107 -3z"/>
<path d="M380 1888 c0 -51 40 -292 50 -302 14 -14 106 -14 119 -1 12 12 56
313 47 322 -12 12 -17 -7 -37 -143 -11 -77 -22 -145 -24 -151 -5 -14 -95 -19
-95 -5 0 4 -9 70 -20 147 -11 77 -20 143 -20 148 0 19 -20 4 -20 -15z"/>
<path d="M677 1904 c-13 -13 -8 -309 5 -322 14 -14 155 -16 176 -4 9 7 12 47
10 168 l-3 159 -90 3 c-50 1 -94 0 -98 -4z m173 -164 l0 -140 -80 0 -80 0 0
140 0 140 80 0 80 0 0 -140z"/>
<path d="M946 1903 c-3 -3 -6 -77 -6 -164 0 -185 -10 -172 129 -167 56 2 86 7
89 16 3 9 -20 12 -92 12 l-96 0 0 149 c0 136 -5 172 -24 154z"/>
<path d="M1230 1750 c0 -152 1 -160 21 -171 31 -16 177 -8 189 11 13 20 8 310
-5 310 -6 0 -11 -58 -13 -150 l-3 -150 -84 0 -85 0 0 155 c0 97 -4 155 -10
155 -6 0 -10 -60 -10 -160z"/>
<path d="M1512 1898 c3 -7 25 -14 51 -16 l47 -3 0 -150 c0 -93 4 -149 10 -149
6 0 10 56 10 149 l0 150 47 3 c26 2 48 9 51 16 3 9 -23 12 -108 12 -85 0 -111
-3 -108 -12z"/>
<path d="M1822 1898 c3 -7 19 -14 36 -16 l32 -3 0 -140 0 -139 -36 0 c-24 0
-34 -4 -31 -12 5 -16 157 -18 157 -3 0 6 -15 11 -35 13 l-35 3 0 139 0 139 35
3 c69 6 40 23 -43 26 -65 2 -83 0 -80 -10z"/>
<path d="M2087 1903 c-4 -3 -7 -75 -7 -159 0 -179 -3 -174 105 -174 107 0 105
-4 105 168 0 102 -4 152 -12 160 -13 13 -179 17 -191 5z m173 -163 l0 -140
-75 0 -75 0 0 140 0 140 75 0 75 0 0 -140z"/>
<path d="M2360 1745 c0 -103 4 -165 10 -165 6 0 10 54 10 143 1 165 -6 166 95
-17 98 -177 105 -175 105 39 0 103 -4 165 -10 165 -6 0 -10 -56 -10 -147 -1
-173 5 -175 -101 20 -40 71 -77 127 -85 127 -12 0 -14 -28 -14 -165z"/>
<path d="M2691 1897 c-12 -15 -55 -306 -46 -315 10 -11 25 21 25 56 l0 32 79
0 79 0 6 -45 c10 -65 30 -58 22 8 -24 193 -34 247 -45 261 -17 20 -104 22
-120 3z m118 -92 c16 -113 21 -105 -60 -105 l-71 0 5 28 c3 15 9 55 13 90 l7
62 47 0 48 0 11 -75z"/>
<path d="M2930 1745 c0 -103 4 -165 10 -165 6 0 10 32 10 75 l0 76 56 -3 57
-3 28 -70 c15 -38 32 -71 38 -73 16 -5 14 8 -14 76 -14 34 -25 64 -25 66 0 3
10 6 23 8 21 3 22 7 22 88 l0 85 -102 3 -103 3 0 -166z m180 70 l0 -65 -80 0
-80 0 0 65 0 65 80 0 80 0 0 -65z"/>
<path d="M3210 1899 c0 -7 20 -54 45 -107 37 -79 45 -105 45 -153 0 -46 3 -59
15 -59 11 0 15 13 15 54 0 43 9 74 46 153 25 54 48 101 50 105 2 4 0 9 -6 13
-6 4 -30 -35 -57 -91 l-48 -98 -44 97 c-41 88 -61 116 -61 86z"/>
<path d="M387 1554 c-4 -4 -7 -83 -7 -176 0 -161 1 -168 20 -168 18 0 20 7 20
75 l0 75 51 0 c49 0 50 -1 65 -37 35 -90 48 -113 61 -113 19 0 16 38 -7 89
-25 54 -25 57 0 64 19 5 21 12 18 99 l-3 93 -106 3 c-58 1 -108 -1 -112 -4z
m183 -94 l0 -60 -75 0 -75 0 0 60 0 60 75 0 75 0 0 -60z"/>
<path d="M675 1527 c-3 -7 -4 -80 -3 -162 l3 -150 98 -3 97 -3 -2 163 -3 163
-93 3 c-70 2 -94 0 -97 -11z m175 -152 l0 -145 -80 0 -80 0 0 145 0 145 80 0
80 0 0 -145z"/>
<path d="M950 1375 l0 -166 103 3 102 3 3 78 c2 53 -1 77 -9 77 -9 0 -9 3 0
14 7 9 11 41 9 83 l-3 68 -102 3 -103 3 0 -166z m178 83 l-3 -63 -75 0 -75 0
-3 49 c-5 74 -3 76 83 76 l76 0 -3 -62z m0 -161 l3 -68 -78 3 -78 3 -3 54 c-5
81 -3 82 80 79 l73 -3 3 -68z"/>
<path d="M1236 1525 c-9 -24 -7 -288 2 -303 6 -9 34 -12 103 -10 l94 3 0 160
0 160 -96 3 c-81 2 -98 0 -103 -13z m184 -150 l0 -145 -80 0 -80 0 0 145 0
145 80 0 80 0 0 -145z"/>
<path d="M1510 1530 c0 -5 23 -10 50 -10 l50 0 0 -155 c0 -97 4 -155 10 -155
6 0 10 58 10 155 l0 155 50 0 c28 0 50 5 50 10 0 6 -43 10 -110 10 -67 0 -110
-4 -110 -10z"/>
<path d="M1820 1530 c0 -5 16 -10 35 -10 l35 0 0 -145 0 -145 -35 0 c-19 0
-35 -4 -35 -10 0 -6 35 -10 85 -10 85 0 119 16 48 22 l-38 3 0 140 0 140 38 3
c71 6 37 22 -48 22 -50 0 -85 -4 -85 -10z"/>
<path d="M2085 1527 c-3 -7 -4 -80 -3 -162 l3 -150 100 0 100 0 3 49 c2 36 0
47 -10 44 -7 -3 -14 -21 -16 -41 l-3 -37 -75 0 -74 0 0 145 0 145 74 0 c72 0
75 -1 78 -25 4 -37 23 -31 23 8 l0 32 -98 3 c-74 2 -99 0 -102 -11z"/>
<path d="M2370 1450 l0 -90 90 0 90 0 0 -65 0 -65 -80 0 c-73 0 -80 2 -80 20
0 11 -4 20 -10 20 -5 0 -10 -13 -10 -30 l0 -30 100 0 100 0 0 90 0 90 -90 0
-90 0 0 65 0 65 80 0 c73 0 80 -2 80 -20 0 -11 5 -20 10 -20 6 0 10 14 10 30
l0 30 -100 0 -100 0 0 -90z"/>
<path d="M717 1176 c-9 -9 -20 -68 -31 -163 -10 -81 -18 -152 -19 -157 -1 -6
5 -11 14 -13 13 -3 18 7 24 46 l7 51 68 0 68 0 8 -47 c7 -35 14 -49 28 -51 15
-3 18 0 13 20 -3 12 -13 86 -22 163 -9 76 -21 145 -27 152 -15 18 -113 17
-131 -1z m106 -48 c3 -13 9 -51 13 -85 l7 -63 -63 0 -62 0 6 38 c3 20 8 58 12
85 6 47 7 47 44 47 31 0 39 -4 43 -22z"/>
<path d="M950 1005 c0 -103 4 -165 10 -165 6 0 10 32 10 75 l0 75 58 0 57 0
29 -75 c16 -41 33 -75 37 -75 14 0 10 21 -16 85 l-24 60 22 5 c20 5 22 13 25
93 l3 87 -106 0 -105 0 0 -165z m180 80 l0 -65 -80 0 -80 0 0 65 0 65 80 0 80
0 0 -65z"/>
<path d="M1230 1160 c0 -5 23 -10 50 -10 l50 0 0 -155 c0 -97 4 -155 10 -155
6 0 10 58 10 155 l0 155 50 0 c28 0 50 5 50 10 0 6 -43 10 -110 10 -67 0 -110
-4 -110 -10z"/>
<path d="M1540 1160 c0 -5 16 -10 35 -10 l36 0 -3 -142 -3 -143 -38 -3 c-20
-2 -35 -7 -32 -13 8 -12 162 -12 170 1 4 6 -10 10 -34 10 l-41 0 0 145 0 145
35 0 c19 0 35 5 35 10 0 6 -33 10 -80 10 -47 0 -80 -4 -80 -10z"/>
<path d="M1800 1005 c0 -103 4 -165 10 -165 6 0 10 33 10 80 l0 80 65 0 c83 0
85 18 3 22 l-63 3 -3 63 -3 62 96 0 c57 0 95 4 95 10 0 6 -42 10 -105 10
l-105 0 0 -165z"/>
<path d="M2100 1160 c0 -5 16 -10 35 -10 l35 0 0 -145 0 -145 -35 0 c-19 0
-35 -4 -35 -10 0 -6 35 -10 85 -10 50 0 85 4 85 10 0 6 -16 10 -35 10 l-35 0
0 145 0 145 35 0 c19 0 35 5 35 10 0 6 -35 10 -85 10 -50 0 -85 -4 -85 -10z"/>
<path d="M2372 1008 l3 -163 95 0 95 0 3 48 c4 55 -15 65 -20 10 l-3 -38 -77
-3 -78 -3 0 146 0 145 80 0 c79 0 80 0 80 -25 0 -14 5 -25 11 -25 6 0 9 14 7
33 l-3 32 -98 3 -97 3 2 -163z"/>
<path d="M2670 1160 c0 -5 16 -10 35 -10 l36 0 -3 -142 -3 -143 -32 -3 c-67
-7 -30 -22 52 -22 85 0 119 16 48 22 l-38 3 -3 143 -3 142 41 0 c22 0 40 5 40
10 0 6 -35 10 -85 10 -50 0 -85 -4 -85 -10z"/>
<path d="M2972 1158 c-5 -7 -17 -67 -26 -133 -9 -66 -19 -135 -22 -152 -3 -20
-1 -33 6 -33 12 0 16 10 25 63 l6 37 74 0 73 0 7 -42 c8 -50 13 -60 24 -53 5
2 5 26 1 52 -5 27 -14 91 -21 143 -16 127 -18 130 -83 130 -31 0 -58 -5 -64
-12z m112 -31 c3 -13 9 -56 12 -95 l7 -72 -65 0 c-36 0 -67 2 -70 5 -2 3 -1
35 4 72 14 116 13 113 62 113 38 0 45 -3 50 -23z"/>
<path d="M3210 1005 l0 -165 104 0 c59 0 108 4 111 10 4 6 -30 10 -94 10
l-101 0 0 155 c0 97 -4 155 -10 155 -6 0 -10 -62 -10 -165z"/>
<path d="M952 648 l3 -173 110 0 c97 0 110 2 113 18 3 15 -6 17 -92 17 l-95 0
-3 152 c-3 137 -5 153 -21 156 -16 3 -17 -8 -15 -170z"/>
<path d="M1255 790 c3 -5 22 -10 41 -10 l34 0 0 -140 0 -140 -24 0 c-33 0 -57
-10 -50 -21 3 -5 41 -9 85 -9 60 0 80 3 76 13 -2 6 -17 12 -33 12 l-29 1 -3
142 -3 142 36 0 c19 0 35 5 35 10 0 6 -35 10 -86 10 -54 0 -83 -4 -79 -10z"/>
<path d="M1520 635 c0 -103 4 -165 10 -165 6 0 10 33 10 80 l0 80 60 0 c47 0
60 3 60 15 0 12 -13 15 -60 15 l-60 0 0 60 0 60 90 0 c53 0 90 4 90 10 0 6
-40 10 -100 10 l-100 0 0 -165z"/>
<path d="M1792 638 l3 -163 108 -3 c85 -2 108 0 105 10 -3 9 -33 14 -96 16
l-92 3 0 64 0 65 60 0 c47 0 60 3 60 15 0 12 -13 15 -60 15 l-60 0 0 60 0 60
90 0 c53 0 90 4 90 10 0 6 -42 10 -105 10 l-105 0 2 -162z"/>
<path d="M1230 280 l0 -170 115 0 c94 0 115 3 115 15 0 11 -19 15 -92 17 l-93
3 -3 153 c-2 144 -4 152 -22 152 -19 0 -20 -7 -20 -170z"/>
<path d="M1562 437 c-6 -7 -18 -75 -27 -152 -8 -77 -18 -148 -21 -157 -4 -13
0 -18 14 -18 16 0 21 9 26 45 l7 45 60 0 c32 0 62 0 67 1 4 0 11 -20 16 -45 7
-35 14 -46 28 -46 14 0 18 5 14 18 -7 26 -15 86 -26 196 -6 55 -15 105 -21
113 -15 17 -123 18 -137 0z m111 -49 c3 -13 9 -51 13 -85 l7 -63 -63 0 -63 0
7 53 c15 119 14 117 56 117 31 0 39 -4 43 -22z"/>
<path d="M1800 280 l0 -171 108 3 107 3 0 165 0 165 -107 3 -108 3 0 -171z
m180 80 l0 -50 -70 0 -70 0 0 50 0 50 70 0 70 0 0 -50z m-5 -155 l0 -60 -65 0
-65 0 -3 49 c-5 74 -2 77 70 74 l63 -3 0 -60z"/>
</g>
</svg>
